<?xml version="1.0" encoding="UTF-8"?>
<svg width="160" height="160" enable-background="new 0 0 100 100" version="1.1" viewBox="0 0 200 200" xmlns="http://www.w3.org/2000/svg" xmlns:xlink="http://www.w3.org/1999/xlink">
  <title>NeverFoundry Logo</title>
  <defs>
    <mask id="a" maskUnits="userSpaceOnUse">
      <g>
        <path id="anvil_white" d="m0 3.21e-6v5.8276l1.5901 1.5901c1.0135 1.102 7.4647 2.8384 15.796 5.022 35.026 9.1803 49.956 30.758 49.956 41.75 0 5.3477-2.6468 10.077-6.7002 12.964h-8.6763l-14.798 9.9601c-1.4242 1.6648-1.2964 3.0208-1.2964 3.0208v10.283h22.391l3.4445-3.6333h58.381l3.4445 3.6333h22.387v-10.283s0.12567-1.356-1.2964-3.0208l-14.802-9.9601h-10.069c-3.6826-2.0732-6.1758-6.0066-6.1758-10.535 0-8.3561 7.4357-15.498 15.796-15.498l8.9155-0.04195c42.167-0.42532 61.288-32.008 61.288-32.008l0.15101-0.22236c0.17185-0.25992 0.27272-0.57328 0.27272-0.90623 0-0.89146-0.72176-1.6111-1.6111-1.6111-0.073 0-0.14306 0.0062-0.21395 0.01267l-2.7103 0.21397c-17.129 1.0053-22.257 1.1747-22.257 1.1747h-35.729v-2.7523h-4.527c-6.1479 0-7.6274-1.9048-7.6274-1.9048v-3.0753z" style="fill:#fff;stroke-width:2.1481"/>
        <use width="100%" height="100%" style="fill:#000000" xlink:href="#ship"/>
      </g>
    </mask>
    <linearGradient id="b" x1="7.8651" x2="200.37" y1="45.209" y2="45.209" gradientUnits="userSpaceOnUse">
      <stop style="stop-color:#a343cd;stop-opacity:.15075" offset="0"/>
      <stop style="stop-color:#d12166;stop-opacity:.57255" offset=".45679"/>
      <stop style="stop-color:#e81032;stop-opacity:.78431" offset=".6461"/>
      <stop style="stop-color:#f3cd19" offset=".8003"/>
      <stop style="stop-color:#fb3306" offset=".91787"/>
      <stop style="stop-color:#890000" offset="1"/>
    </linearGradient>
  </defs>
  <g id="icon" transform="translate(0,54.79)">
    <use id="ship_clone_color" width="100%" height="100%" style="display:none;fill:#0058ff;stroke:#0058ff" xlink:href="#ship"/>
    <path id="anvil" d="m0 3.21e-6v5.8276l1.5901 1.5901c1.0135 1.102 7.4647 2.8384 15.796 5.022 35.026 9.1803 49.956 30.758 49.956 41.75 0 5.3477-2.6468 10.077-6.7002 12.964h-8.6763l-14.798 9.9601c-1.4242 1.6648-1.2964 3.0208-1.2964 3.0208v10.283h22.391l3.4445-3.6333h58.381l3.4445 3.6333h22.387v-10.283s0.12567-1.356-1.2964-3.0208l-14.802-9.9601h-10.069c-3.6826-2.0732-6.1758-6.0066-6.1758-10.535 0-8.3561 7.4357-15.498 15.796-15.498l8.9155-0.04195c42.167-0.42532 61.288-32.008 61.288-32.008l0.15101-0.22236c0.17185-0.25992 0.27272-0.57328 0.27272-0.90623 0-0.89146-0.72176-1.6111-1.6111-1.6111-0.073 0-0.14306 0.0062-0.21395 0.01267l-2.7103 0.21397c-17.129 1.0053-22.257 1.1747-22.257 1.1747h-35.729v-2.7523h-4.527c-6.1479 0-7.6274-1.9048-7.6274-1.9048v-3.0753z" mask="url(#a)" style="stroke-width:2.1481"/>
    <use id="anvil_clone_color" width="100%" height="100%" style="fill:url(#b)" xlink:href="#anvil"/>
    <g id="ship_group" style="opacity:0">
      <path id="ship" d="m135.31 28.437v0.3955l-15.471 9.9814 2.0906 1.409-9.412 9.7145h-42.976v-1.424l-0.41816-1.1519-2.5087-0.9789-1.2544-2.6647 0.41813-5.1762v-1.9775l-0.83625-2.3038 16.725-21.555-1.2544-3.8512v-0.39551l4.1813 0.44498 5.4356-7.1734 0.83625-0.46471c16.028-0.80827 29.748 16.225 44.444 27.171zm-30.23 6.0771 0.96167 0.6956c7.5262-11.697 7.0878-18.613 1.0638-25.914-5.1025-6.1841-10.183-7.4291-13.339-7.7525-2.7681-0.28363-2.8993 0.11769-2.8993 0.11769v7.9101l7.9444 1.3201v0.39551l-0.41813 0.03461c1.415 2.9051 1.269 6.2507 1.0495 7.8885-0.34068 2.5413-1.0463 4.0768-1.4676 4.8022-0.27492 0.47327-0.83625 1.2557-0.83625 1.2557s0.80119 1.1996 1.2544 3.0602c0.25566 1.0498 0.35328 2.1636 0.41813 3.1492 0.0648 0.98558 0.0407 1.9623 0 2.7488-0.14343 2.7847-1.6725 4.8845-1.6725 4.8845v0.791l-7.5263 0.22733v4.7461c7.0996-0.59264 10.577-1.5858 10.453-7.5886-7.6e-4 -0.03581 1.3715-0.37453 1.3715-0.37453 0.78563-0.44193 0.77017-0.90335 1.5774-1.495 1.1389-0.58837 2.0656-0.90262 2.0656-0.90262zm-15.049-32.388-5.0175 6.7433 4.8084 0.59084zm-8.7806 6.857 2.5087 0.78115 0.41815-0.43011zm3.345 0.51419-0.41813 0.43011 5.6446 1.3126v-0.98876zm6.2719 0.86523v0.79101l5.4356-0.05435zm-9.1988 2.7388-16.307 21.125 10.035 0.75156 2.9269 1.7353c1.6725-4.0935 0.83628-8.7703-0.4181-12.622l-0.41815 0.03461v-0.791l0.41815-0.03461c2.9269-3.0107 4.5994-6.3132 3.7631-10.199zm-2.0906 10.456 9.1988 0.42526v-0.79101c-2.9269-0.35104-6.0628 0.1062-9.1988 0.36574zm-0.83625 0.46471c3.136 1.3225 6.4809 2.0344 10.035 1.9381v-1.1865zm11.708-0.57336v0.59326l4.1812 0.64274zm0 1.3843v0.98876l5.4356-0.44983zm16.011 10.342c3.345 3.6782 7.3172 4.536 12.126 2.1606l15.889-8.8295s-1.2544-1.4782-2.9269-2.1308c-9.1988-4.1826-17.979 3.8609-25.088 8.7997zm-16.847 2.9762v1.1865l5.4356-0.05433zm-1.2544 0.1038-7.1081 0.98374 7.1081 0.20278zm-7.1081 1.7747c0 4.3506 2.9269 5.4926 7.1081 4.9488v-4.746z" style="fill-rule:evenodd;stroke-width:.40666"/>
    </g>
  </g>
</svg>
