<?xml version="1.0" standalone="no"?>
<!DOCTYPE svg PUBLIC "-//W3C//DTD SVG 20010904//EN"
 "http://www.w3.org/TR/2001/REC-SVG-20010904/DTD/svg10.dtd">
<svg version="1.0" xmlns="http://www.w3.org/2000/svg"
 width="200.000000pt" height="200.000000pt" viewBox="0 0 200.000000 200.000000"
 preserveAspectRatio="xMidYMid meet">
<metadata>
Created by potrace 1.11, written by Peter Selinger 2001-2013
</metadata>
<g transform="translate(0.000000,200.000000) scale(0.100000,-0.100000)"
fill="#000000" stroke="none">
<path d="M0 1420 c0 -39 20 -51 160 -90 188 -53 306 -115 403 -213 67 -69 108
-143 108 -199 2 -88 -38 -138 -110 -138 -39 -1 -58 -9 -121 -53 l-75 -52 -3
-63 -3 -62 111 0 c95 0 114 3 131 19 19 18 39 19 309 19 270 0 290 -2 306 -19
15 -17 32 -19 131 -19 l114 0 -3 62 -3 63 -75 52 c-69 48 -80 52 -132 53 -50
0 -59 3 -82 31 -14 17 -27 38 -27 47 -7 73 20 126 78 159 31 17 57 22 128 24
218 4 359 52 512 171 66 52 146 144 140 162 -2 7 -35 9 -98 6 -52 -2 -191 -5
-309 -5 -167 0 -214 3 -213 13 2 8 -10 12 -36 12 -51 0 -91 15 -91 35 0 13
-72 15 -625 15 l-625 0 0 -30z m940 -76 c17 2 34 -1 40 -9 14 -17 15 -101 2
-118 -8 -10 -8 -24 -1 -52 8 -28 8 -49 0 -75 -9 -32 -15 -37 -42 -38 -33 -1
-51 -16 -42 -38 11 -29 103 9 103 44 0 17 28 41 49 42 8 0 22 -6 30 -14 34
-31 69 -27 157 19 46 24 84 42 84 40 0 -2 -27 -20 -60 -40 -35 -21 -57 -41
-54 -49 3 -7 -15 -32 -39 -57 l-45 -44 -208 -1 -209 0 -24 29 c-18 22 -25 42
-26 78 l0 49 41 -5 c22 -2 52 -7 67 -10 22 -6 26 -3 29 22 2 15 0 43 -5 61 -6
26 -4 40 13 67 16 27 20 43 15 76 -5 35 -4 41 9 36 9 -4 16 -2 16 4 0 6 7 3
16 -5 8 -9 23 -16 32 -15 14 0 13 2 -3 9 -17 7 -17 9 -2 9 13 1 17 10 19 39 1
32 2 30 5 -11 4 -47 5 -48 33 -43z m274 -64 l105 -87 -44 5 c-35 3 -55 -1 -97
-23 -29 -15 -62 -36 -74 -46 -32 -30 -36 -23 -13 22 24 48 31 110 17 150 -5
15 -31 49 -56 75 l-47 47 52 -28 c28 -15 99 -67 157 -115z"/>
<path d="M816 1211 c-18 -7 -18 -8 5 -14 41 -11 69 -8 69 8 0 16 -40 19 -74 6z"/>
<path d="M913 1205 c0 -8 7 -15 15 -15 12 0 12 3 2 15 -7 8 -13 15 -15 15 -1
0 -2 -7 -2 -15z"/>
<path d="M855 1060 c4 -6 -5 -10 -19 -10 -14 0 -26 -4 -26 -9 0 -18 31 -41 54
-41 18 0 24 6 24 25 0 14 -5 25 -10 25 -5 0 -6 5 -3 10 3 6 -1 10 -10 10 -9 0
-13 -4 -10 -10z"/>
<path d="M898 1063 c6 -2 18 -2 25 0 6 3 1 5 -13 5 -14 0 -19 -2 -12 -5z"/>
</g>
</svg>
